<svg xmlns="http://www.w3.org/2000/svg" viewBox="0 0 256 256" role="img" aria-label="Virunga Expedition favicon">
  <rect width="256" height="256" fill="none" />
  <ellipse cx="128" cy="66" rx="102" ry="34" fill="#003b23" />
  <path
    d="M86 110c-16 12-25 33-25 62v19c0 7 6 13 13 13h38c5 0 10-3 13-7l3-4 3 4c3 4 8 7 13 7h38c7 0 13-6 13-13v-19c0-29-9-50-25-62-11-9-26-13-42-13s-31 4-42 13Z"
    fill="#003b23"
  />
  <path
    d="M78 129c11 10 30 16 50 16s39-6 50-16c-7 19-27 32-50 32s-43-13-50-32Z"
    fill="#003b23"
  />
  <path
    d="M82 135c15 6 27 9 46 9s31-3 46-9c-6 17-25 28-46 28s-40-11-46-28Z"
    fill="#ffffff"
  />
  <ellipse cx="128" cy="224" rx="28" ry="10" fill="#003b23" />
</svg>
